<?xml version="1.0" standalone="no"?>
<!DOCTYPE svg PUBLIC "-//W3C//DTD SVG 20010904//EN"
 "http://www.w3.org/TR/2001/REC-SVG-20010904/DTD/svg10.dtd">
<svg version="1.0" xmlns="http://www.w3.org/2000/svg"
 width="1379.000000pt" height="1065.000000pt" viewBox="0 0 1379.000000 1065.000000"
 preserveAspectRatio="xMidYMid meet">

<g transform="translate(0.000000,1065.000000) scale(0.100000,-0.100000)"
fill="#000000" stroke="none">
<path d="M6279 9761 c-14 -5 -64 -9 -110 -9 -278 -3 -486 -73 -632 -211 -121
-115 -215 -296 -241 -462 -8 -52 -14 -88 -15 -81 -22 289 -63 406 -185 528
-81 81 -179 134 -331 180 -75 23 -107 27 -193 26 -225 -3 -416 -94 -600 -286
-144 -151 -225 -284 -234 -382 -5 -49 -137 -269 -152 -254 -19 19 -26 10 -26
-30 0 -34 -15 -62 -99 -187 -54 -82 -145 -222 -201 -313 -56 -91 -219 -346
-363 -568 -233 -357 -262 -399 -265 -371 -3 27 5 40 49 85 l53 54 -52 0 c-49
0 -52 1 -52 26 0 14 7 153 15 307 8 155 19 363 24 462 5 103 16 201 24 230 46
152 58 209 64 290 9 142 -19 311 -77 455 -54 136 -211 360 -286 408 -27 17
-60 41 -74 52 -65 52 -349 65 -470 22 -177 -63 -328 -189 -425 -356 -39 -67
-92 -205 -118 -308 -32 -122 -43 -311 -28 -458 25 -231 25 -230 7 -230 -21 0
-20 -9 2 -34 47 -52 74 -452 107 -1576 9 -289 20 -590 25 -670 5 -80 14 -273
20 -430 5 -157 16 -431 22 -610 7 -179 13 -388 15 -465 8 -458 23 -1041 28
-1105 10 -121 54 -370 76 -430 17 -45 20 -68 14 -123 -5 -59 -4 -71 14 -93 12
-15 21 -35 21 -46 0 -11 4 -28 10 -38 5 -10 17 -75 25 -145 11 -85 23 -141 37
-169 39 -76 59 -253 67 -575 l6 -295 55 85 c30 46 66 94 80 107 23 22 25 22
31 5 5 -14 11 -9 27 27 19 43 168 200 189 200 13 0 23 -106 23 -234 l0 -99
113 5 c121 5 164 19 192 62 32 49 35 87 24 338 l-12 248 26 20 c14 11 30 35
36 53 6 18 13 181 16 374 5 313 18 556 45 848 32 340 40 469 35 550 -2 50 -7
200 -10 334 l-5 245 113 -170 c62 -93 133 -196 157 -229 107 -145 563 -832
562 -847 0 -10 6 -18 13 -18 25 0 113 -117 155 -204 40 -85 127 -209 274 -391
45 -55 119 -153 164 -218 46 -64 117 -153 159 -197 41 -44 72 -84 68 -90 -3
-5 2 -10 13 -10 11 0 31 -15 45 -33 41 -54 119 -128 162 -155 22 -13 83 -66
135 -117 66 -63 110 -97 143 -110 36 -13 52 -28 72 -60 38 -65 73 -104 116
-125 61 -32 114 -26 244 26 l114 46 -31 39 -32 40 25 24 24 24 90 -124 c50
-69 95 -125 101 -125 18 0 154 149 170 186 28 68 11 161 -37 200 -13 10 -54
60 -90 109 -65 88 -66 91 -73 167 -7 97 -32 152 -161 353 -91 142 -222 391
-212 402 3 2 -3 13 -12 22 -10 10 -23 45 -29 77 -15 74 -122 256 -229 389 -4
6 -35 44 -69 85 -164 203 -497 693 -673 990 -57 96 -165 279 -241 405 -75 127
-154 263 -176 302 l-38 73 22 23 c30 32 28 37 -16 37 l-39 0 -61 113 c-33 61
-106 200 -161 307 l-101 194 102 156 c271 413 511 753 685 971 103 130 278
366 388 525 180 260 213 302 330 419 71 72 163 156 203 188 108 85 196 235
242 410 l19 72 1 -115 c1 -153 13 -369 38 -685 40 -502 62 -862 66 -1105 3
-135 10 -308 16 -385 7 -77 17 -297 23 -488 10 -299 10 -350 -2 -362 -13 -12
-13 -17 1 -32 17 -20 29 -285 49 -1073 20 -823 42 -1343 63 -1480 8 -52 17
-125 20 -163 l7 -67 -88 0 -88 0 113 -113 112 -112 0 -58 c0 -42 4 -59 15 -63
11 -5 15 -24 15 -80 0 -50 4 -76 13 -81 7 -4 27 -33 44 -63 33 -58 53 -151 53
-241 0 -102 11 -124 221 -468 l124 -204 3 227 2 226 39 0 c22 0 42 -6 44 -12
3 -7 6 -2 6 12 2 46 13 49 68 15 l53 -32 -33 -31 c-40 -39 -62 -40 -81 -4 -14
24 -15 0 -15 -258 0 -179 3 -279 9 -270 5 8 58 96 118 195 105 175 109 180
143 183 l36 3 6 102 c4 55 4 134 0 174 l-6 73 -41 2 c-40 1 -40 1 -6 5 19 3
38 10 42 16 4 7 8 59 8 117 0 58 4 110 8 116 5 9 42 7 142 -8 153 -22 357 -19
600 8 334 37 652 142 871 287 227 150 494 423 662 677 91 139 151 266 232 490
36 102 75 208 85 235 11 28 35 118 54 200 45 198 57 247 63 265 3 8 20 -48 38
-125 209 -881 659 -1518 1302 -1840 459 -229 947 -287 1346 -158 76 24 77 25
77 58 0 30 4 35 33 44 17 5 84 28 147 51 157 57 150 55 150 36 0 -31 502 318
595 413 l49 51 -104 105 c-58 58 -109 105 -114 105 -5 0 -39 -24 -75 -53 -84
-69 -162 -124 -230 -166 l-53 -32 -29 27 c-16 15 -29 33 -29 40 0 16 -81 277
-89 286 -3 4 -37 -7 -76 -23 -38 -17 -83 -32 -100 -34 -16 -2 -70 -10 -120
-19 -63 -11 -91 -13 -96 -5 -4 8 -13 7 -30 -2 -30 -16 -59 -20 -178 -26 -116
-6 -214 14 -327 67 -448 208 -799 697 -953 1329 -66 268 -89 484 -97 906 -8
390 5 662 41 841 14 69 25 136 25 149 0 13 4 26 9 30 5 3 12 36 16 73 8 87 30
226 48 299 8 32 23 93 33 136 10 42 23 77 30 77 7 0 14 29 19 78 8 81 40 205
74 285 18 41 24 47 51 47 35 0 37 6 11 34 -20 21 -19 22 21 112 39 87 44 93
90 115 67 31 73 41 43 69 l-24 23 36 51 c91 126 243 268 344 321 49 26 83 36
126 39 32 2 168 22 303 45 146 25 282 43 337 44 87 2 93 1 120 -25 37 -35 43
-35 43 2 0 29 1 30 48 30 113 0 235 40 311 101 111 88 191 271 191 436 0 150
-63 327 -165 462 -189 249 -550 380 -1050 381 -182 1 -217 -9 -420 -115 -263
-136 -498 -286 -645 -409 -174 -145 -389 -382 -532 -586 -134 -192 -267 -449
-338 -655 -85 -248 -197 -697 -214 -860 -4 -33 -10 -78 -13 -100 l-7 -40 -7
50 c-3 28 -2 55 4 63 6 8 6 12 -2 12 -6 0 -11 10 -11 22 0 33 -88 420 -121
531 -43 144 -121 335 -198 482 -71 136 -107 227 -96 245 3 5 0 10 -7 10 -7 0
-33 39 -58 87 -61 117 -160 272 -231 362 -46 57 -59 81 -59 107 0 35 -5 40
-29 25 -17 -11 -71 31 -228 174 -55 51 -128 111 -161 134 -98 66 -390 231
-484 272 -263 116 -531 172 -873 184 -93 3 -206 7 -250 9 -44 3 -92 1 -106 -3z
m5609 -434 c2 -11 -3 -17 -17 -17 -23 0 -35 15 -26 31 10 15 39 6 43 -14z
m-6253 -357 c-10 -11 -20 -18 -23 -15 -3 3 3 14 13 25 10 11 20 18 23 15 3 -3
-3 -14 -13 -25z m-358 -57 c-3 -10 -5 -2 -5 17 0 19 2 27 5 18 2 -10 2 -26 0
-35z m6783 -23 c0 -32 -1 -33 -24 -24 -16 6 -22 35 -9 47 16 17 33 5 33 -23z
m-5127 -25 c-3 -9 -8 -14 -10 -11 -3 3 -2 9 2 15 9 16 15 13 8 -4z m82 -584
c3 -5 38 -17 78 -26 123 -28 332 -148 413 -238 78 -86 78 -81 -8 -209 -41 -62
-83 -126 -93 -141 -17 -27 -10 -25 113 37 72 36 136 66 140 66 11 0 68 -124
115 -251 73 -196 216 -691 227 -789 7 -52 20 -137 31 -188 30 -150 59 -386 59
-491 0 -53 7 -154 15 -226 19 -166 19 -313 0 -573 -18 -248 -34 -369 -81 -602
-41 -205 -82 -358 -125 -467 -59 -148 -229 -463 -251 -463 -3 0 -22 26 -42 58
l-35 57 -1 -97 0 -97 -53 -41 c-30 -22 -58 -40 -63 -40 -5 0 -36 27 -69 60
-33 33 -63 60 -67 60 -4 0 -8 -47 -8 -104 l0 -104 -47 -20 c-64 -27 -164 -56
-303 -86 -118 -27 -349 -60 -357 -53 -2 3 4 86 13 185 17 167 17 208 3 559 -7
208 -14 540 -14 738 0 198 -4 608 -9 910 l-8 550 58 40 59 40 -59 3 -59 3 7
357 c4 196 9 483 12 637 2 156 13 382 25 510 11 127 23 271 27 320 l7 90 35 6
c19 4 31 8 25 10 -9 2 43 6 247 17 20 1 39 -2 43 -7z m-1315 -45 c0 -7 -7 -19
-15 -26 -13 -11 -15 -8 -15 14 0 16 5 26 15 26 8 0 15 -6 15 -14z m4081 -219
c-10 -9 -11 -8 -5 6 3 10 9 15 12 12 3 -3 0 -11 -7 -18z m-4066 -57 c3 -5 1
-10 -4 -10 -6 0 -11 5 -11 10 0 6 2 10 4 10 3 0 8 -4 11 -10z m4555 -30 c0 -5
-5 -10 -11 -10 -5 0 -7 5 -4 10 3 6 8 10 11 10 2 0 4 -4 4 -10z m-4000 -91 c0
-5 -7 -9 -15 -9 -15 0 -20 12 -9 23 8 8 24 -1 24 -14z m-4480 -1419 c0 -5 -9
-10 -20 -10 -11 0 -20 5 -20 10 0 6 9 10 20 10 11 0 20 -4 20 -10z m7740 -380
c0 -5 -7 -10 -16 -10 -8 0 -12 5 -9 10 3 6 10 10 16 10 5 0 9 -4 9 -10z
m-7763 -56 c-3 -3 -12 -4 -19 -1 -8 3 -5 6 6 6 11 1 17 -2 13 -5z m1603 -1169
c11 -13 8 -15 -19 -15 -30 0 -39 9 -24 23 11 11 30 8 43 -8z m6225 -5 c3 -5 2
-10 -4 -10 -5 0 -13 5 -16 10 -3 6 -2 10 4 10 5 0 13 -4 16 -10z m48 -50 c3
-13 -1 -21 -15 -26 -25 -8 -28 -4 -17 24 10 27 25 29 32 2z m-7718 -80 c3 -5
2 -10 -4 -10 -5 0 -13 5 -16 10 -3 6 -2 10 4 10 5 0 13 -4 16 -10z m-28 -36
c-9 -9 -28 6 -21 18 4 6 10 6 17 -1 6 -6 8 -13 4 -17z m437 -230 c3 -8 2 -12
-4 -9 -6 3 -10 10 -10 16 0 14 7 11 14 -7z m6136 -764 c0 -5 -7 -7 -15 -4 -8
4 -15 8 -15 10 0 2 7 4 15 4 8 0 15 -4 15 -10z m-4005 -40 c3 -5 -1 -10 -9
-10 -9 0 -16 5 -16 10 0 6 4 10 9 10 6 0 13 -4 16 -10z m3590 -140 c3 -5 -1
-10 -9 -10 -8 0 -18 5 -21 10 -3 6 1 10 9 10 8 0 18 -4 21 -10z m-5602 -153
c3 -8 1 -20 -4 -28 -6 -10 -9 -7 -9 14 0 29 5 35 13 14z m7607 -7 c0 -5 -2
-10 -4 -10 -3 0 -8 5 -11 10 -3 6 -1 10 4 10 6 0 11 -4 11 -10z m-7618 -102
c-7 -7 -12 -8 -12 -2 0 14 12 26 19 19 2 -3 -1 -11 -7 -17z m5528 -87 c0 -11
-26 -22 -34 -14 -3 4 -6 15 -6 25 0 16 3 17 20 8 11 -6 20 -15 20 -19z m-3120
-361 c0 -5 -9 -10 -20 -10 -11 0 -20 5 -20 10 0 6 9 10 20 10 11 0 20 -4 20
-10z m2395 -100 c3 -5 1 -10 -4 -10 -6 0 -11 5 -11 10 0 6 2 10 4 10 3 0 8 -4
11 -10z m-720 -290 c-21 -23 -35 -26 -35 -6 0 13 15 21 44 25 5 0 1 -8 -9 -19z"/>
</g>
</svg>
